<svg xmlns="http://www.w3.org/2000/svg" viewBox="0 0 1024 1024">
  <defs>
    <linearGradient id="orange" x1="120" y1="80" x2="880" y2="944" gradientUnits="userSpaceOnUse">
      <stop stop-color="#FB923C"/>
      <stop offset="1" stop-color="#EA580C"/>
    </linearGradient>
  </defs>
  <rect width="1024" height="1024" rx="224" fill="url(#orange)"/>
  <g transform="translate(224 224) scale(12)" fill="none" stroke="#fff" stroke-width="4" stroke-linecap="round" stroke-linejoin="round">
    <path d="M30 27 24 44M18 27l6 17M18 27h12M41 34 30 27M41 14 30 27M41 14 24 17M30 27l-6-10M24 4v13M7 14l17 3M18 27l6-10M18 27 7 14M18 27 7 34"/>
    <path d="M41.3207 14 24.0002 4 6.67969 14v20l17.32051 10 17.3205-10V14Z"/>
  </g>
</svg>
